REM DIRINDEX 1\2\6,1\2\7,1\2\8,1\2\9,1\3\10,1\3\11,1\4\12,1\4\13,1\4\14,1\5\15,1\5\16,1\5\17
REM DIRNAME cjc020,folder01,folder02,folder03,folder04,folder05,folder06,folder07,folder08,folder09,folder10,folder11,folder12,folder13,folder14,folder15,folder16
TITLE ""
FILE "1900_3_104 sec18_1758_1776.mp3" MP3
  TRACK 01 AUDIO
    TITLE "0:"
    INDEX 01 00:00:00
  TRACK 02 AUDIO
    TITLE "17:cjc020_9501"
    INDEX 01 00:00:13
  TRACK 03 AUDIO
    TITLE "0:"
    INDEX 01 00:01:30
  TRACK 04 AUDIO
    TITLE "16:cjc020_9502"
    INDEX 01 00:01:38
  TRACK 05 AUDIO
    TITLE "0:"
    INDEX 01 00:02:65
  TRACK 06 AUDIO
    TITLE "17:cjc020_9503"
    INDEX 01 00:03:47
  TRACK 07 AUDIO
    TITLE "0:"
    INDEX 01 00:06:18
  TRACK 08 AUDIO
    TITLE "16:cjc020_9504"
    INDEX 01 00:06:22
  TRACK 09 AUDIO
    TITLE "0:"
    INDEX 01 00:07:33
  TRACK 10 AUDIO
    TITLE "17:cjc020_9505"
    INDEX 01 00:08:17
  TRACK 11 AUDIO
    TITLE "0:"
    INDEX 01 00:09:49
  TRACK 12 AUDIO
    TITLE "16:cjc020_9506"
    INDEX 01 00:09:51
  TRACK 13 AUDIO
    TITLE "0:"
    INDEX 01 00:10:70
  TRACK 14 AUDIO
    TITLE "17:cjc020_9507"
    INDEX 01 00:11:54
  TRACK 15 AUDIO
    TITLE "0:"
    INDEX 01 00:12:67
  TRACK 16 AUDIO
    TITLE "16:cjc020_9508"
    INDEX 01 00:13:04
  TRACK 17 AUDIO
    TITLE "0:"
    INDEX 01 00:14:00
  TRACK 18 AUDIO
    TITLE "17:cjc020_9509"
    INDEX 01 00:14:60
  TRACK 19 AUDIO
    TITLE "0:"
    INDEX 01 00:17:06
  TRACK 20 AUDIO
    TITLE "16:cjc020_9510"
    INDEX 01 00:17:14
  TRACK 21 AUDIO
    TITLE "0:"
    INDEX 01 00:18:33
  TRACK 22 AUDIO
    TITLE "17:cjc020_9511"
    INDEX 01 00:19:11
  TRACK 23 AUDIO
    TITLE "0:"
    INDEX 01 00:20:39
  TRACK 24 AUDIO
    TITLE "16:cjc020_9512"
    INDEX 01 00:20:43
  TRACK 25 AUDIO
    TITLE "0:"
    INDEX 01 00:21:70
  TRACK 26 AUDIO
    TITLE "17:cjc020_9513"
    INDEX 01 00:22:52
  TRACK 27 AUDIO
    TITLE "0:"
    INDEX 01 00:25:17
  TRACK 28 AUDIO
    TITLE "16:cjc020_9514"
    INDEX 01 00:25:19
  TRACK 29 AUDIO
    TITLE "0:"
    INDEX 01 00:26:52
  TRACK 30 AUDIO
    TITLE "17:cjc020_9515"
    INDEX 01 00:27:36
  TRACK 31 AUDIO
    TITLE "0:"
    INDEX 01 00:28:37
  TRACK 32 AUDIO
    TITLE "16:cjc020_9516"
    INDEX 01 00:28:41
  TRACK 33 AUDIO
    TITLE "0:"
    INDEX 01 00:29:66
  TRACK 34 AUDIO
    TITLE "17:cjc020_9517"
    INDEX 01 00:30:48
  TRACK 35 AUDIO
    TITLE "0:"
    INDEX 01 00:31:57
  TRACK 36 AUDIO
    TITLE "16:cjc020_9518"
    INDEX 01 00:31:61
  TRACK 37 AUDIO
    TITLE "0:"
    INDEX 01 00:33:15
  TRACK 38 AUDIO
    TITLE "17:cjc020_9519"
    INDEX 01 00:34:02
  TRACK 39 AUDIO
    TITLE "0:"
    INDEX 01 00:35:14
  TRACK 40 AUDIO
    TITLE "16:cjc020_9520"
    INDEX 01 00:35:17
  TRACK 41 AUDIO
    TITLE "0:"
    INDEX 01 00:36:46
  TRACK 42 AUDIO
    TITLE "17:cjc020_9521"
    INDEX 01 00:37:30
  TRACK 43 AUDIO
    TITLE "0:"
    INDEX 01 00:38:51
  TRACK 44 AUDIO
    TITLE "16:cjc020_9522"
    INDEX 01 00:38:59
  TRACK 45 AUDIO
    TITLE "0:"
    INDEX 01 00:40:03
  TRACK 46 AUDIO
    TITLE "17:cjc020_9523"
    INDEX 01 00:40:64
  TRACK 47 AUDIO
    TITLE "0:"
    INDEX 01 00:43:09
  TRACK 48 AUDIO
    TITLE "16:cjc020_9524"
    INDEX 01 00:43:17
  TRACK 49 AUDIO
    TITLE "0:"
    INDEX 01 00:44:30
  TRACK 50 AUDIO
    TITLE "17:cjc020_9525"
    INDEX 01 00:45:16
  TRACK 51 AUDIO
    TITLE "0:"
    INDEX 01 00:47:27
  TRACK 52 AUDIO
    TITLE "16:cjc020_9526"
    INDEX 01 00:47:30
  TRACK 53 AUDIO
    TITLE "0:"
    INDEX 01 00:48:34
  TRACK 54 AUDIO
    TITLE "17:cjc020_9527"
    INDEX 01 00:49:23
  TRACK 55 AUDIO
    TITLE "0:"
    INDEX 01 00:50:31
  TRACK 56 AUDIO
    TITLE "16:cjc020_9528"
    INDEX 01 00:50:35
  TRACK 57 AUDIO
    TITLE "0:"
    INDEX 01 00:51:42
  TRACK 58 AUDIO
    TITLE "17:cjc020_9529"
    INDEX 01 00:52:24
  TRACK 59 AUDIO
    TITLE "0:"
    INDEX 01 00:53:45
  TRACK 60 AUDIO
    TITLE "16:cjc020_9530"
    INDEX 01 00:53:49
  TRACK 61 AUDIO
    TITLE "0:"
    INDEX 01 00:54:62
  TRACK 62 AUDIO
    TITLE "17:cjc020_9531"
    INDEX 01 00:55:42
  TRACK 63 AUDIO
    TITLE "0:"
    INDEX 01 00:57:27
  TRACK 64 AUDIO
    TITLE "16:cjc020_9532"
    INDEX 01 00:57:31
  TRACK 65 AUDIO
    TITLE "0:"
    INDEX 01 00:58:42
  TRACK 66 AUDIO
    TITLE "17:cjc020_9533"
    INDEX 01 00:59:28
  TRACK 67 AUDIO
    TITLE "0:"
    INDEX 01 01:00:66
  TRACK 68 AUDIO
    TITLE "16:cjc020_9534"
    INDEX 01 01:00:70
  TRACK 69 AUDIO
    TITLE "0:"
    INDEX 01 01:01:72
  TRACK 70 AUDIO
    TITLE "17:cjc020_9535"
    INDEX 01 01:02:57
  TRACK 71 AUDIO
    TITLE "0:"
    INDEX 01 01:04:72
  TRACK 72 AUDIO
    TITLE "16:cjc020_9536"
    INDEX 01 01:05:01
  TRACK 73 AUDIO
    TITLE "0:"
    INDEX 01 01:06:00
  TRACK 74 AUDIO
    TITLE "17:cjc020_9537"
    INDEX 01 01:06:57
  TRACK 75 AUDIO
    TITLE "0:"
    INDEX 01 01:07:72
  TRACK 76 AUDIO
    TITLE "16:cjc020_9538"
    INDEX 01 01:08:03
  TRACK 77 AUDIO
    TITLE "0:"
    INDEX 01 01:09:10
